<?xml version="1.0" encoding="UTF-8"?>
<!DOCTYPE svg PUBLIC "-//W3C//DTD SVG 1.1//EN" "http://www.w3.org/Graphics/SVG/1.1/DTD/svg11.dtd">
<svg xmlns="http://www.w3.org/2000/svg" version="1.1" width="601px" height="384px" style="shape-rendering:geometricPrecision; text-rendering:geometricPrecision; image-rendering:optimizeQuality; fill-rule:evenodd; clip-rule:evenodd" xmlns:xlink="http://www.w3.org/1999/xlink">
<g><path style="opacity:1" fill="#fefefe" d="M -0.5,-0.5 C 199.833,-0.5 400.167,-0.5 600.5,-0.5C 600.5,127.5 600.5,255.5 600.5,383.5C 400.167,383.5 199.833,383.5 -0.5,383.5C -0.5,255.5 -0.5,127.5 -0.5,-0.5 Z"/></g>
<g><path style="opacity:1" fill="#fcf2ee" d="M 544.5,53.5 C 544.5,52.1667 544.5,50.8333 544.5,49.5C 460.167,49.5 375.833,49.5 291.5,49.5C 291.5,50.8333 291.5,52.1667 291.5,53.5C 290.549,52.0813 290.216,50.4147 290.5,48.5C 375.5,48.5 460.5,48.5 545.5,48.5C 545.784,50.4147 545.451,52.0813 544.5,53.5 Z"/></g>
<g><path style="opacity:1" fill="#97b6da" d="M 26.5,51.5 C 112.665,50.5006 198.998,50.1673 285.5,50.5C 285.784,52.4147 285.451,54.0813 284.5,55.5C 284.5,54.1667 284.5,52.8333 284.5,51.5C 198.5,51.5 112.5,51.5 26.5,51.5 Z"/></g>
<g><path style="opacity:1" fill="#e44e27" d="M 544.5,53.5 C 536.744,138.472 529.244,223.472 522,308.5C 487.381,318.872 452.547,328.539 417.5,337.5C 382.776,328.528 348.276,318.861 314,308.5C 306.875,223.461 299.375,138.461 291.5,53.5C 291.5,52.1667 291.5,50.8333 291.5,49.5C 375.833,49.5 460.167,49.5 544.5,49.5C 544.5,50.8333 544.5,52.1667 544.5,53.5 Z"/></g>
<g><path style="opacity:1" fill="#2162af" d="M 26.5,51.5 C 112.5,51.5 198.5,51.5 284.5,51.5C 284.5,52.8333 284.5,54.1667 284.5,55.5C 276.5,141.167 268.5,226.833 260.5,312.5C 225.376,321.993 190.209,331.326 155,340.5C 120.118,331.217 85.2845,321.884 50.5,312.5C 42.6979,225.479 34.6979,138.479 26.5,51.5 Z"/></g>
<g><path style="opacity:1" fill="#fffcfb" d="M 417.5,70.5 C 418.167,70.5 418.5,70.8333 418.5,71.5C 418.5,81.5 418.5,91.5 418.5,101.5C 445.167,101.5 471.833,101.5 498.5,101.5C 497.235,112.803 496.235,124.136 495.5,135.5C 469.833,135.5 444.167,135.5 418.5,135.5C 418.5,145.833 418.5,156.167 418.5,166.5C 443.167,166.5 467.833,166.5 492.5,166.5C 489.56,199.503 486.56,232.503 483.5,265.5C 462.167,271.5 440.833,277.5 419.5,283.5C 419.167,288.833 418.833,294.167 418.5,299.5C 418.505,305.211 419.172,310.544 420.5,315.5C 420.5,315.833 420.5,316.167 420.5,316.5C 419.5,316.5 418.5,316.5 417.5,316.5C 417.5,305.5 417.5,294.5 417.5,283.5C 417.5,272.167 417.5,260.833 417.5,249.5C 417.5,232.833 417.5,216.167 417.5,199.5C 393.833,199.5 370.167,199.5 346.5,199.5C 369.994,198.502 393.661,198.169 417.5,198.5C 417.5,187.833 417.5,177.167 417.5,166.5C 417.5,156.167 417.5,145.833 417.5,135.5C 417.5,124.167 417.5,112.833 417.5,101.5C 417.5,91.1667 417.5,80.8333 417.5,70.5 Z"/></g>
<g><path style="opacity:1" fill="#f7b69f" d="M 417.5,70.5 C 452.329,69.5016 487.329,69.1683 522.5,69.5C 520.026,103.566 517.026,137.566 513.5,171.5C 513.167,171.5 512.833,171.5 512.5,171.5C 515.26,138.143 518.26,104.81 521.5,71.5C 487.167,71.5 452.833,71.5 418.5,71.5C 418.5,70.8333 418.167,70.5 417.5,70.5 Z"/></g>
<g><path style="opacity:1" fill="#f16529" d="M 418.5,71.5 C 452.833,71.5 487.167,71.5 521.5,71.5C 518.26,104.81 515.26,138.143 512.5,171.5C 509.022,211.497 505.522,251.497 502,291.5C 474.869,299.904 447.702,307.904 420.5,315.5C 419.172,310.544 418.505,305.211 418.5,299.5C 418.833,294.167 419.167,288.833 419.5,283.5C 440.833,277.5 462.167,271.5 483.5,265.5C 486.56,232.503 489.56,199.503 492.5,166.5C 467.833,166.5 443.167,166.5 418.5,166.5C 418.5,156.167 418.5,145.833 418.5,135.5C 444.167,135.5 469.833,135.5 495.5,135.5C 496.235,124.136 497.235,112.803 498.5,101.5C 471.833,101.5 445.167,101.5 418.5,101.5C 418.5,91.5 418.5,81.5 418.5,71.5 Z"/></g>
<g><path style="opacity:1" fill="#3f9cd7" d="M 156.5,71.5 C 191.167,71.5 225.833,71.5 260.5,71.5C 259.403,76.3208 259.403,80.9874 260.5,85.5C 259.972,91.3175 259.305,96.9842 258.5,102.5C 256.917,109.273 255.917,116.273 255.5,123.5C 255.507,125.369 255.84,127.036 256.5,128.5C 256.326,130.861 255.993,133.194 255.5,135.5C 254.187,141.959 253.521,148.626 253.5,155.5C 253.625,161.203 253.292,166.87 252.5,172.5C 250.585,182.612 249.251,192.945 248.5,203.5C 248.505,205.696 248.838,207.696 249.5,209.5C 248.982,214.986 248.315,220.319 247.5,225.5C 245.638,231.11 245.304,236.777 246.5,242.5C 246.167,245.833 245.833,249.167 245.5,252.5C 244.078,259.985 242.911,267.652 242,275.5C 241.185,280.352 241.352,285.019 242.5,289.5C 241.781,291.764 241.448,294.097 241.5,296.5C 231.552,299.154 221.552,301.487 211.5,303.5C 208.084,303.528 205.084,304.528 202.5,306.5C 197.887,308.038 193.22,309.371 188.5,310.5C 185.513,309.298 182.846,309.965 180.5,312.5C 179.5,312.5 178.5,312.5 177.5,312.5C 172.835,313.057 168.502,314.39 164.5,316.5C 163.833,316.833 163.167,317.167 162.5,317.5C 160.691,316.709 158.691,316.709 156.5,317.5C 156.5,306.833 156.5,296.167 156.5,285.5C 165.196,283.527 173.863,281.36 182.5,279C 195.738,274.956 208.904,270.789 222,266.5C 225.165,233.85 227.998,201.184 230.5,168.5C 208.167,168.5 185.833,168.5 163.5,168.5C 161.585,168.784 159.919,168.451 158.5,167.5C 183.713,157.641 208.713,146.974 233.5,135.5C 234.875,125.165 236.208,114.832 237.5,104.5C 210.508,103.5 183.508,103.167 156.5,103.5C 156.5,92.8333 156.5,82.1667 156.5,71.5 Z"/></g>
<g><path style="opacity:1" fill="#b7d0e8" d="M 260.5,71.5 C 261.217,75.9889 261.217,80.6556 260.5,85.5C 259.403,80.9874 259.403,76.3208 260.5,71.5 Z"/></g>
<g><path style="opacity:1" fill="#4e82c0" d="M 155.5,102.5 C 127.985,102.836 100.651,103.836 73.5,105.5C 72.596,104.791 72.2627,103.791 72.5,102.5C 100.167,102.5 127.833,102.5 155.5,102.5 Z"/></g>
<g><path style="opacity:1" fill="#ece9e9" d="M 417.5,101.5 C 417.5,112.833 417.5,124.167 417.5,135.5C 402.833,135.5 388.167,135.5 373.5,135.5C 374.56,145.828 375.56,156.162 376.5,166.5C 390.167,166.5 403.833,166.5 417.5,166.5C 417.5,177.167 417.5,187.833 417.5,198.5C 393.661,198.169 369.994,198.502 346.5,199.5C 343.151,167.009 340.151,134.342 337.5,101.5C 364.167,101.5 390.833,101.5 417.5,101.5 Z"/></g>
<g><path style="opacity:1" fill="#efeeed" d="M 147.5,135.5 C 123.833,135.5 100.167,135.5 76.5,135.5C 75.1234,126.561 74.4567,117.561 74.5,108.5C 74.5,107.167 74.5,105.833 74.5,104.5C 98.8333,104.5 123.167,104.5 147.5,104.5C 147.5,114.833 147.5,125.167 147.5,135.5 Z"/></g>
<g><path style="opacity:1" fill="#f8f9f8" d="M 156.5,71.5 C 156.5,82.1667 156.5,92.8333 156.5,103.5C 183.508,103.167 210.508,103.5 237.5,104.5C 236.208,114.832 234.875,125.165 233.5,135.5C 208.713,146.974 183.713,157.641 158.5,167.5C 157.85,167.804 157.183,168.137 156.5,168.5C 155.507,163.88 155.173,159.214 155.5,154.5C 155.5,148.5 155.5,142.5 155.5,136.5C 153.052,135.527 150.385,135.194 147.5,135.5C 147.5,125.167 147.5,114.833 147.5,104.5C 123.167,104.5 98.8333,104.5 74.5,104.5C 74.5,105.833 74.5,107.167 74.5,108.5C 73.596,107.791 73.2627,106.791 73.5,105.5C 100.651,103.836 127.985,102.836 155.5,102.5C 155.172,91.9865 155.506,81.6532 156.5,71.5 Z"/></g>
<g><path style="opacity:1" fill="#b2d0e9" d="M 258.5,102.5 C 258.492,111.223 257.825,119.889 256.5,128.5C 255.84,127.036 255.507,125.369 255.5,123.5C 255.917,116.273 256.917,109.273 258.5,102.5 Z"/></g>
<g><path style="opacity:1" fill="#e44d26" d="M 417.5,135.5 C 417.5,145.833 417.5,156.167 417.5,166.5C 403.833,166.5 390.167,166.5 376.5,166.5C 375.56,156.162 374.56,145.828 373.5,135.5C 388.167,135.5 402.833,135.5 417.5,135.5 Z"/></g>
<g><path style="opacity:1" fill="#c7dcef" d="M 255.5,135.5 C 255.793,142.405 255.126,149.072 253.5,155.5C 253.521,148.626 254.187,141.959 255.5,135.5 Z"/></g>
<g><path style="opacity:1" fill="#e6e7e8" d="M 155.5,136.5 C 155.5,142.5 155.5,148.5 155.5,154.5C 154.549,155.919 154.216,157.585 154.5,159.5C 137.658,159.83 120.992,159.497 104.5,158.5C 121.5,151.167 138.5,143.833 155.5,136.5 Z"/></g>
<g><path style="opacity:1" fill="#f0f0ef" d="M 155.5,154.5 C 155.173,159.214 155.507,163.88 156.5,168.5C 157.183,168.137 157.85,167.804 158.5,167.5C 159.919,168.451 161.585,168.784 163.5,168.5C 163.5,178.833 163.5,189.167 163.5,199.5C 174.014,199.172 184.347,199.506 194.5,200.5C 181.833,200.5 169.167,200.5 156.5,200.5C 156.5,199.833 156.167,199.5 155.5,199.5C 130.833,199.5 106.167,199.5 81.5,199.5C 81.4467,189.101 80.9467,178.768 80,168.5C 87.8418,164.333 96.0085,161 104.5,158.5C 120.992,159.497 137.658,159.83 154.5,159.5C 154.216,157.585 154.549,155.919 155.5,154.5 Z"/></g>
<g><path style="opacity:1" fill="#f9f9f9" d="M 163.5,168.5 C 185.833,168.5 208.167,168.5 230.5,168.5C 227.998,201.184 225.165,233.85 222,266.5C 208.904,270.789 195.738,274.956 182.5,279C 173.863,281.36 165.196,283.527 156.5,285.5C 156.5,296.167 156.5,306.833 156.5,317.5C 158.691,316.709 160.691,316.709 162.5,317.5C 160.254,317.936 158.087,318.603 156,319.5C 155.5,308.172 155.333,296.838 155.5,285.5C 154.167,285.5 152.833,285.5 151.5,285.5C 152.477,274.248 152.811,262.914 152.5,251.5C 153.791,251.737 154.791,251.404 155.5,250.5C 155.5,233.5 155.5,216.5 155.5,199.5C 156.167,199.5 156.5,199.833 156.5,200.5C 156.167,217.18 156.501,233.847 157.5,250.5C 168.881,247.291 180.214,243.958 191.5,240.5C 192.762,227.209 193.762,213.875 194.5,200.5C 184.347,199.506 174.014,199.172 163.5,199.5C 163.5,189.167 163.5,178.833 163.5,168.5 Z"/></g>
<g><path style="opacity:1" fill="#afcee9" d="M 252.5,172.5 C 251.783,184.853 250.783,197.187 249.5,209.5C 248.838,207.696 248.505,205.696 248.5,203.5C 249.251,192.945 250.585,182.612 252.5,172.5 Z"/></g>
<g><path style="opacity:1" fill="#3d9cd7" d="M 156.5,200.5 C 169.167,200.5 181.833,200.5 194.5,200.5C 193.762,213.875 192.762,227.209 191.5,240.5C 180.214,243.958 168.881,247.291 157.5,250.5C 156.501,233.847 156.167,217.18 156.5,200.5 Z"/></g>
<g><path style="opacity:1" fill="#f16529" d="M 418.5,199.5 C 431.167,199.5 443.833,199.5 456.5,199.5C 455.184,212.813 454.017,226.147 453,239.5C 441.667,242.833 430.333,246.167 419,249.5C 418.5,232.837 418.333,216.17 418.5,199.5 Z"/></g>
<g><path style="opacity:1" fill="#eceaea" d="M 417.5,249.5 C 417.5,260.833 417.5,272.167 417.5,283.5C 395.815,277.828 374.148,271.995 352.5,266C 350.206,248.939 348.54,231.772 347.5,214.5C 358.5,214.5 369.5,214.5 380.5,214.5C 381.45,223.133 382.117,231.8 382.5,240.5C 394.222,243.296 405.888,246.296 417.5,249.5 Z"/></g>
<g><path style="opacity:1" fill="#c3dcef" d="M 247.5,225.5 C 247.365,231.181 247.032,236.848 246.5,242.5C 245.304,236.777 245.638,231.11 247.5,225.5 Z"/></g>
<g><path style="opacity:1" fill="#eeeeed" d="M 155.5,250.5 C 154.791,251.404 153.791,251.737 152.5,251.5C 152.811,262.914 152.477,274.248 151.5,285.5C 130.756,278.903 109.923,272.569 89,266.5C 87.6395,249.813 86.1395,233.146 84.5,216.5C 95.8333,216.5 107.167,216.5 118.5,216.5C 119.24,225.152 119.907,233.819 120.5,242.5C 132.157,245.162 143.824,247.829 155.5,250.5 Z"/></g>
<g><path style="opacity:1" fill="#b3cde7" d="M 245.5,252.5 C 244.698,264.85 243.698,277.183 242.5,289.5C 241.352,285.019 241.185,280.352 242,275.5C 242.911,267.652 244.078,259.985 245.5,252.5 Z"/></g>
<g><path style="opacity:1" fill="#f9c5b3" d="M 512.5,171.5 C 512.833,171.5 513.167,171.5 513.5,171.5C 510.314,212.209 506.648,252.876 502.5,293.5C 475.154,301.171 447.821,308.838 420.5,316.5C 420.5,316.167 420.5,315.833 420.5,315.5C 447.702,307.904 474.869,299.904 502,291.5C 505.522,251.497 509.022,211.497 512.5,171.5 Z"/></g>
<g><path style="opacity:1" fill="#bcd7ec" d="M 211.5,303.5 C 208.855,305.31 205.855,306.31 202.5,306.5C 205.084,304.528 208.084,303.528 211.5,303.5 Z"/></g>
<g><path style="opacity:1" fill="#b5cfe8" d="M 188.5,310.5 C 185.888,311.371 183.221,312.037 180.5,312.5C 182.846,309.965 185.513,309.298 188.5,310.5 Z"/></g>
<g><path style="opacity:1" fill="#b6d0e9" d="M 177.5,312.5 C 173.597,314.898 169.264,316.231 164.5,316.5C 168.502,314.39 172.835,313.057 177.5,312.5 Z"/></g>
</svg>
