<?xml version="1.0" encoding="UTF-8"?>
<!DOCTYPE svg PUBLIC "-//W3C//DTD SVG 1.1//EN" "http://www.w3.org/Graphics/SVG/1.1/DTD/svg11.dtd">
<svg xmlns="http://www.w3.org/2000/svg" version="1.1" width="853px" height="535px" style="shape-rendering:geometricPrecision; text-rendering:geometricPrecision; image-rendering:optimizeQuality; fill-rule:evenodd; clip-rule:evenodd" xmlns:xlink="http://www.w3.org/1999/xlink">
<g><path style="opacity:1" fill="#000000" d="M -0.5,-0.5 C 283.833,-0.5 568.167,-0.5 852.5,-0.5C 852.5,177.833 852.5,356.167 852.5,534.5C 568.167,534.5 283.833,534.5 -0.5,534.5C -0.5,356.167 -0.5,177.833 -0.5,-0.5 Z"/></g>
<g><path style="opacity:1" fill="#f9f9f9" d="M 456.5,135.5 C 456.5,139.5 456.5,143.5 456.5,147.5C 461.363,147.819 466.03,147.486 470.5,146.5C 470.5,142.833 470.5,139.167 470.5,135.5C 476.833,135.5 483.167,135.5 489.5,135.5C 489.5,147.167 489.5,158.833 489.5,170.5C 483.167,170.5 476.833,170.5 470.5,170.5C 470.5,166.833 470.5,163.167 470.5,159.5C 465.833,159.5 461.167,159.5 456.5,159.5C 456.5,163.167 456.5,166.833 456.5,170.5C 450.5,170.5 444.5,170.5 438.5,170.5C 438.5,158.833 438.5,147.167 438.5,135.5C 444.5,135.5 450.5,135.5 456.5,135.5 Z"/></g>
<g><path style="opacity:1" fill="#fefefe" d="M 495.5,135.5 C 510.833,135.5 526.167,135.5 541.5,135.5C 541.5,139.5 541.5,143.5 541.5,147.5C 536.833,147.5 532.167,147.5 527.5,147.5C 527.5,155.167 527.5,162.833 527.5,170.5C 521.5,170.5 515.5,170.5 509.5,170.5C 509.5,162.833 509.5,155.167 509.5,147.5C 504.833,147.5 500.167,147.5 495.5,147.5C 495.5,143.5 495.5,139.5 495.5,135.5 Z"/></g>
<g><path style="opacity:1" fill="#fafafa" d="M 548.5,135.5 C 554.842,135.334 561.175,135.5 567.5,136C 570.667,139.833 573.833,143.667 577,147.5C 580.141,143.424 583.641,139.59 587.5,136C 593.491,135.501 599.491,135.334 605.5,135.5C 605.5,147.167 605.5,158.833 605.5,170.5C 599.833,170.5 594.167,170.5 588.5,170.5C 588.666,165.156 588.499,159.823 588,154.5C 584.978,158.855 581.311,162.522 577,165.5C 573.039,162.206 569.373,158.539 566,154.5C 565.501,159.823 565.334,165.156 565.5,170.5C 559.833,170.5 554.167,170.5 548.5,170.5C 548.5,158.833 548.5,147.167 548.5,135.5 Z"/></g>
<g><path style="opacity:1" fill="#fdfdfd" d="M 612.5,135.5 C 618.5,135.5 624.5,135.5 630.5,135.5C 630.5,143.167 630.5,150.833 630.5,158.5C 638.5,158.5 646.5,158.5 654.5,158.5C 654.5,162.5 654.5,166.5 654.5,170.5C 640.5,170.5 626.5,170.5 612.5,170.5C 612.5,158.833 612.5,147.167 612.5,135.5 Z"/></g>
<g><path style="opacity:1" fill="#fcfcfc" d="M 194.5,137.5 C 207.833,137.5 221.167,137.5 234.5,137.5C 234.5,141.5 234.5,145.5 234.5,149.5C 227.167,149.5 219.833,149.5 212.5,149.5C 212.5,152.833 212.5,156.167 212.5,159.5C 219.833,159.5 227.167,159.5 234.5,159.5C 234.5,163.5 234.5,167.5 234.5,171.5C 221.167,171.5 207.833,171.5 194.5,171.5C 194.5,160.167 194.5,148.833 194.5,137.5 Z"/></g>
<g><path style="opacity:1" fill="#fcfcfc" d="M 251.5,137.5 C 264.833,137.5 278.167,137.5 291.5,137.5C 291.5,141.5 291.5,145.5 291.5,149.5C 287.154,149.334 282.821,149.501 278.5,150C 282.084,153.416 286.084,156.249 290.5,158.5C 291.492,162.783 291.826,167.116 291.5,171.5C 278.167,171.5 264.833,171.5 251.5,171.5C 251.5,167.5 251.5,163.5 251.5,159.5C 256.179,159.666 260.845,159.499 265.5,159C 261,155.833 256.5,152.667 252,149.5C 251.501,145.514 251.334,141.514 251.5,137.5 Z"/></g>
<g><path style="opacity:1" fill="#fcfcfc" d="M 308.5,137.5 C 321.833,137.5 335.167,137.5 348.5,137.5C 348.5,141.5 348.5,145.5 348.5,149.5C 343.821,149.334 339.155,149.501 334.5,150C 338.912,153.29 343.412,156.456 348,159.5C 348.499,163.486 348.666,167.486 348.5,171.5C 335.167,171.5 321.833,171.5 308.5,171.5C 308.5,167.5 308.5,163.5 308.5,159.5C 313.179,159.666 317.845,159.499 322.5,159C 317.886,156.624 313.552,153.791 309.5,150.5C 308.508,146.217 308.174,141.884 308.5,137.5 Z"/></g>
<g><path style="opacity:1" fill="#757575" d="M 456.5,135.5 C 457.482,138.962 457.815,142.629 457.5,146.5C 461.833,146.5 466.167,146.5 470.5,146.5C 466.03,147.486 461.363,147.819 456.5,147.5C 456.5,143.5 456.5,139.5 456.5,135.5 Z"/></g>
<g><path style="opacity:1" fill="#cdbfbb" d="M 671.5,234.5 C 672.838,218.466 674.504,202.466 676.5,186.5C 589.833,186.5 503.167,186.5 416.5,186.5C 416.5,188.833 416.5,191.167 416.5,193.5C 415.469,191.039 414.802,188.373 414.5,185.5C 502.5,185.5 590.5,185.5 678.5,185.5C 676.398,201.997 674.065,218.331 671.5,234.5 Z"/></g>
<g><path style="opacity:1" fill="#99b6d7" d="M 398.5,198.5 C 398.552,194.802 398.886,191.135 399.5,187.5C 314.167,187.5 228.833,187.5 143.5,187.5C 144.114,191.135 144.448,194.802 144.5,198.5C 143.008,194.736 142.008,190.736 141.5,186.5C 228.167,186.5 314.833,186.5 401.5,186.5C 400.992,190.736 399.992,194.736 398.5,198.5 Z"/></g>
<g><path style="opacity:1" fill="#2262af" d="M 398.5,198.5 C 398.5,200.833 398.5,203.167 398.5,205.5C 396.495,211.209 395.495,217.209 395.5,223.5C 395.5,224.833 395.5,226.167 395.5,227.5C 393.322,235.233 391.989,243.233 391.5,251.5C 391.5,252.833 391.5,254.167 391.5,255.5C 390.105,259.591 389.438,263.924 389.5,268.5C 389.658,271.902 389.324,275.236 388.5,278.5C 387.028,282.919 386.362,287.586 386.5,292.5C 385.886,296.135 385.552,299.802 385.5,303.5C 383.106,311.197 381.773,319.197 381.5,327.5C 381.5,328.5 381.5,329.5 381.5,330.5C 379.656,336.911 378.656,343.578 378.5,350.5C 378.5,351.5 378.5,352.5 378.5,353.5C 377.139,358.304 376.139,363.304 375.5,368.5C 367.238,370.204 358.905,371.538 350.5,372.5C 347.848,372.41 345.515,373.076 343.5,374.5C 319.349,378.886 295.183,383.22 271,387.5C 246.827,383.213 222.66,378.88 198.5,374.5C 196.485,373.076 194.152,372.41 191.5,372.5C 183.443,371.444 175.443,370.111 167.5,368.5C 166.861,363.304 165.861,358.304 164.5,353.5C 164.5,352.5 164.5,351.5 164.5,350.5C 164.344,343.578 163.344,336.911 161.5,330.5C 161.5,329.5 161.5,328.5 161.5,327.5C 161.227,319.197 159.894,311.197 157.5,303.5C 157.5,301.167 157.5,298.833 157.5,296.5C 157.504,290.858 156.504,285.525 154.5,280.5C 154.5,279.167 154.5,277.833 154.5,276.5C 154.322,269.251 153.322,262.251 151.5,255.5C 151.5,254.167 151.5,252.833 151.5,251.5C 151.011,243.233 149.678,235.233 147.5,227.5C 147.5,226.167 147.5,224.833 147.5,223.5C 147.505,217.209 146.505,211.209 144.5,205.5C 144.5,203.167 144.5,200.833 144.5,198.5C 144.448,194.802 144.114,191.135 143.5,187.5C 228.833,187.5 314.167,187.5 399.5,187.5C 398.886,191.135 398.552,194.802 398.5,198.5 Z"/></g>
<g><path style="opacity:1" fill="#e44f28" d="M 671.5,234.5 C 671.473,240.051 670.806,245.384 669.5,250.5C 667.281,261.257 665.948,272.257 665.5,283.5C 665.556,288.731 664.889,293.731 663.5,298.5C 660.346,317.265 658.012,336.265 656.5,355.5C 656.806,358.385 656.473,361.052 655.5,363.5C 654.756,366.36 654.089,369.36 653.5,372.5C 649.738,373.838 646.071,375.172 642.5,376.5C 637.934,377.807 633.267,378.474 628.5,378.5C 624.521,378.742 620.854,379.742 617.5,381.5C 616.167,381.5 614.833,381.5 613.5,381.5C 610.505,381.294 607.838,381.96 605.5,383.5C 604.5,383.5 603.5,383.5 602.5,383.5C 598.2,383.719 594.2,384.719 590.5,386.5C 589.5,386.5 588.5,386.5 587.5,386.5C 583.2,386.755 579.2,387.755 575.5,389.5C 574.5,389.5 573.5,389.5 572.5,389.5C 569.505,389.294 566.838,389.96 564.5,391.5C 562.194,391.993 559.861,392.326 557.5,392.5C 554.848,392.41 552.515,393.076 550.5,394.5C 547.5,394.5 544.5,394.5 541.5,394.5C 539.485,393.076 537.152,392.41 534.5,392.5C 528.432,391.871 522.432,390.871 516.5,389.5C 512.8,387.755 508.8,386.755 504.5,386.5C 501.941,386.802 499.607,386.468 497.5,385.5C 495.162,383.96 492.495,383.294 489.5,383.5C 488.5,383.5 487.5,383.5 486.5,383.5C 484.485,382.076 482.152,381.41 479.5,381.5C 478.167,381.5 476.833,381.5 475.5,381.5C 473.095,380.232 470.428,379.565 467.5,379.5C 465.139,379.326 462.806,378.993 460.5,378.5C 458.162,376.96 455.495,376.294 452.5,376.5C 451.833,376.5 451.167,376.5 450.5,376.5C 447.404,375.081 444.071,374.081 440.5,373.5C 439.02,370.241 438.02,366.908 437.5,363.5C 435.609,353.374 434.275,343.041 433.5,332.5C 432.719,318.59 431.053,304.923 428.5,291.5C 427.527,289.052 427.194,286.385 427.5,283.5C 427.052,272.257 425.719,261.257 423.5,250.5C 422.194,245.384 421.527,240.051 421.5,234.5C 421.052,223.257 419.719,212.257 417.5,201.5C 416.527,199.052 416.194,196.385 416.5,193.5C 416.5,191.167 416.5,188.833 416.5,186.5C 503.167,186.5 589.833,186.5 676.5,186.5C 674.504,202.466 672.838,218.466 671.5,234.5 Z"/></g>
<g><path style="opacity:1" fill="#e3edf6" d="M 271.5,201.5 C 306.329,200.502 341.329,200.168 376.5,200.5C 376.5,201.5 376.5,202.5 376.5,203.5C 341.722,201.517 306.722,200.85 271.5,201.5 Z"/></g>
<g><path style="opacity:1" fill="#fffdfc" d="M 547.5,201.5 C 547.5,201.833 547.5,202.167 547.5,202.5C 547.5,209.833 547.5,217.167 547.5,224.5C 574.841,224.167 602.175,224.5 629.5,225.5C 628.091,233.102 627.091,240.768 626.5,248.5C 600.167,248.5 573.833,248.5 547.5,248.5C 547.5,255.833 547.5,263.167 547.5,270.5C 572.833,270.5 598.167,270.5 623.5,270.5C 621.156,293.917 618.156,317.25 614.5,340.5C 610.378,342.452 606.045,343.952 601.5,345C 583.767,348.257 566.101,351.757 548.5,355.5C 547.503,363.138 547.169,370.804 547.5,378.5C 547.44,379.043 547.107,379.376 546.5,379.5C 546.148,371.125 545.148,363.125 543.5,355.5C 545.422,347.436 546.088,339.103 545.5,330.5C 545.5,318.5 545.5,306.5 545.5,294.5C 521.167,294.5 496.833,294.5 472.5,294.5C 496.661,293.502 520.994,293.169 545.5,293.5C 545.5,285.833 545.5,278.167 545.5,270.5C 545.5,263.167 545.5,255.833 545.5,248.5C 545.5,240.5 545.5,232.5 545.5,224.5C 544.868,216.427 545.535,208.76 547.5,201.5 Z"/></g>
<g><path style="opacity:1" fill="#409dd7" d="M 271.5,201.5 C 306.722,200.85 341.722,201.517 376.5,203.5C 376.007,205.806 375.674,208.139 375.5,210.5C 373.623,217.257 372.29,224.257 371.5,231.5C 371.511,233.045 371.844,234.378 372.5,235.5C 372.167,236.833 371.833,238.167 371.5,239.5C 369.289,246.075 368.622,252.741 369.5,259.5C 368.85,261.435 368.517,263.435 368.5,265.5C 366.863,270.238 365.863,275.238 365.5,280.5C 365.511,282.045 365.844,283.378 366.5,284.5C 366.167,285.833 365.833,287.167 365.5,288.5C 363.809,295.462 362.476,302.629 361.5,310C 361.514,311.385 361.848,312.551 362.5,313.5C 361.781,315.764 361.448,318.097 361.5,320.5C 359.73,324.094 359.397,327.76 360.5,331.5C 359.04,339.762 358.04,348.095 357.5,356.5C 329.115,361.577 300.782,366.91 272.5,372.5C 271.803,364.777 271.136,357.11 270.5,349.5C 293.233,345.483 315.9,341.15 338.5,336.5C 340.455,313.801 342.788,291.135 345.5,268.5C 323.5,268.5 301.5,268.5 279.5,268.5C 277.585,268.784 275.919,268.451 274.5,267.5C 299.148,260.337 323.815,253.171 348.5,246C 350.9,238.726 351.9,231.226 351.5,223.5C 327.833,223.5 304.167,223.5 280.5,223.5C 277.5,223.5 274.5,223.5 271.5,223.5C 271.5,223.167 271.5,222.833 271.5,222.5C 271.5,215.5 271.5,208.5 271.5,201.5 Z"/></g>
<g><path style="opacity:1" fill="#f16529" d="M 547.5,202.5 C 582.833,202.5 618.167,202.5 653.5,202.5C 646.014,254.39 639.18,306.39 633,358.5C 632.039,361.215 630.206,362.882 627.5,363.5C 626.609,364.11 625.609,364.443 624.5,364.5C 621.756,363.509 619.089,363.843 616.5,365.5C 615.292,366.234 613.959,366.567 612.5,366.5C 608.683,365.697 605.016,366.363 601.5,368.5C 600.5,368.5 599.5,368.5 598.5,368.5C 594.239,368.898 590.239,369.898 586.5,371.5C 586.167,371.5 585.833,371.5 585.5,371.5C 581.542,371.251 577.876,371.918 574.5,373.5C 573.833,373.5 573.167,373.5 572.5,373.5C 568.163,373.584 564.163,374.584 560.5,376.5C 560.167,376.5 559.833,376.5 559.5,376.5C 555.878,376.322 552.544,376.989 549.5,378.5C 548.833,378.5 548.167,378.5 547.5,378.5C 547.169,370.804 547.503,363.138 548.5,355.5C 566.101,351.757 583.767,348.257 601.5,345C 606.045,343.952 610.378,342.452 614.5,340.5C 618.156,317.25 621.156,293.917 623.5,270.5C 598.167,270.5 572.833,270.5 547.5,270.5C 547.5,263.167 547.5,255.833 547.5,248.5C 573.833,248.5 600.167,248.5 626.5,248.5C 627.091,240.768 628.091,233.102 629.5,225.5C 602.175,224.5 574.841,224.167 547.5,224.5C 547.5,217.167 547.5,209.833 547.5,202.5 Z"/></g>
<g><path style="opacity:1" fill="#e0bcb2" d="M 417.5,201.5 C 419.719,212.257 421.052,223.257 421.5,234.5C 419.281,223.743 417.948,212.743 417.5,201.5 Z"/></g>
<g><path style="opacity:1" fill="#adb7c4" d="M 144.5,205.5 C 146.505,211.209 147.505,217.209 147.5,223.5C 145.656,217.767 144.656,211.767 144.5,205.5 Z"/></g>
<g><path style="opacity:1" fill="#b5d1e9" d="M 375.5,210.5 C 374.631,218.846 373.631,227.179 372.5,235.5C 371.844,234.378 371.511,233.045 371.5,231.5C 372.29,224.257 373.623,217.257 375.5,210.5 Z"/></g>
<g><path style="opacity:1" fill="#a8b0ba" d="M 398.5,205.5 C 398.344,211.767 397.344,217.767 395.5,223.5C 395.495,217.209 396.495,211.209 398.5,205.5 Z"/></g>
<g><path style="opacity:1" fill="#4e82c0" d="M 271.5,222.5 C 271.5,222.833 271.5,223.167 271.5,223.5C 243.995,223.169 216.662,223.502 189.5,224.5C 188.957,224.44 188.624,224.107 188.5,223.5C 216.159,222.5 243.825,222.167 271.5,222.5 Z"/></g>
<g><path style="opacity:1" fill="#efefee" d="M 271.5,223.5 C 274.5,223.5 277.5,223.5 280.5,223.5C 280.5,230.833 280.5,238.167 280.5,245.5C 277.43,245.368 274.43,245.701 271.5,246.5C 245.339,245.502 219.005,245.169 192.5,245.5C 192.01,238.416 191.01,231.416 189.5,224.5C 216.662,223.502 243.995,223.169 271.5,223.5 Z"/></g>
<g><path style="opacity:1" fill="#fafafa" d="M 280.5,223.5 C 304.167,223.5 327.833,223.5 351.5,223.5C 351.9,231.226 350.9,238.726 348.5,246C 323.815,253.171 299.148,260.337 274.5,267.5C 273.85,267.804 273.183,268.137 272.5,268.5C 272.087,260.921 271.087,253.588 269.5,246.5C 270.167,246.5 270.833,246.5 271.5,246.5C 274.43,245.701 277.43,245.368 280.5,245.5C 280.5,238.167 280.5,230.833 280.5,223.5 Z"/></g>
<g><path style="opacity:1" fill="#ebeaea" d="M 545.5,224.5 C 545.5,232.5 545.5,240.5 545.5,248.5C 530.5,248.5 515.5,248.5 500.5,248.5C 501.255,255.544 502.255,262.544 503.5,269.5C 517.484,270.499 531.484,270.833 545.5,270.5C 545.5,278.167 545.5,285.833 545.5,293.5C 520.994,293.169 496.661,293.502 472.5,294.5C 469.353,271.324 466.353,247.991 463.5,224.5C 490.833,224.5 518.167,224.5 545.5,224.5 Z"/></g>
<g><path style="opacity:1" fill="#bcc8d8" d="M 147.5,227.5 C 149.678,235.233 151.011,243.233 151.5,251.5C 149.537,243.722 148.204,235.722 147.5,227.5 Z"/></g>
<g><path style="opacity:1" fill="#bbc6d4" d="M 395.5,227.5 C 394.804,235.725 393.471,243.725 391.5,251.5C 391.989,243.233 393.322,235.233 395.5,227.5 Z"/></g>
<g><path style="opacity:1" fill="#b1d0ea" d="M 371.5,239.5 C 371.27,246.214 370.603,252.88 369.5,259.5C 368.622,252.741 369.289,246.075 371.5,239.5 Z"/></g>
<g><path style="opacity:1" fill="#e44d26" d="M 545.5,248.5 C 545.5,255.833 545.5,263.167 545.5,270.5C 531.484,270.833 517.484,270.499 503.5,269.5C 502.255,262.544 501.255,255.544 500.5,248.5C 515.5,248.5 530.5,248.5 545.5,248.5 Z"/></g>
<g><path style="opacity:1" fill="#debdb5" d="M 423.5,250.5 C 425.719,261.257 427.052,272.257 427.5,283.5C 425.281,272.743 423.948,261.743 423.5,250.5 Z"/></g>
<g><path style="opacity:1" fill="#a8b4c4" d="M 151.5,255.5 C 153.322,262.251 154.322,269.251 154.5,276.5C 152.547,269.766 151.547,262.766 151.5,255.5 Z"/></g>
<g><path style="opacity:1" fill="#acbacd" d="M 391.5,255.5 C 391.844,260.122 391.177,264.455 389.5,268.5C 389.438,263.924 390.105,259.591 391.5,255.5 Z"/></g>
<g><path style="opacity:1" fill="#f0efef" d="M 269.5,246.5 C 271.087,253.588 272.087,260.921 272.5,268.5C 273.183,268.137 273.85,267.804 274.5,267.5C 275.919,268.451 277.585,268.784 279.5,268.5C 279.5,275.5 279.5,282.5 279.5,289.5C 252.5,289.5 225.5,289.5 198.5,289.5C 197.826,282.777 196.826,276.11 195.5,269.5C 195.709,268.914 196.043,268.414 196.5,268C 220.815,260.728 245.149,253.561 269.5,246.5 Z"/></g>
<g><path style="opacity:1" fill="#e0beb6" d="M 669.5,250.5 C 669.052,261.743 667.719,272.743 665.5,283.5C 665.948,272.257 667.281,261.257 669.5,250.5 Z"/></g>
<g><path style="opacity:1" fill="#b6d4eb" d="M 368.5,265.5 C 367.942,271.846 367.276,278.179 366.5,284.5C 365.844,283.378 365.511,282.045 365.5,280.5C 365.863,275.238 366.863,270.238 368.5,265.5 Z"/></g>
<g><path style="opacity:1" fill="#adbacc" d="M 388.5,278.5 C 388.771,283.434 388.104,288.1 386.5,292.5C 386.362,287.586 387.028,282.919 388.5,278.5 Z"/></g>
<g><path style="opacity:1" fill="#b1bdce" d="M 154.5,280.5 C 156.504,285.525 157.504,290.858 157.5,296.5C 155.496,291.475 154.496,286.142 154.5,280.5 Z"/></g>
<g><path style="opacity:1" fill="#f9bfaa" d="M 547.5,202.5 C 547.5,202.167 547.5,201.833 547.5,201.5C 583.167,201.5 618.833,201.5 654.5,201.5C 647.715,253.947 641.048,306.447 634.5,359C 633.898,362.922 631.565,364.422 627.5,363.5C 630.206,362.882 632.039,361.215 633,358.5C 639.18,306.39 646.014,254.39 653.5,202.5C 618.167,202.5 582.833,202.5 547.5,202.5 Z"/></g>
<g><path style="opacity:1" fill="#489fd8" d="M 198.5,289.5 C 225.5,289.5 252.5,289.5 279.5,289.5C 289.5,289.5 299.5,289.5 309.5,289.5C 308.944,299.181 308.277,308.847 307.5,318.5C 295.441,320.578 283.441,322.912 271.5,325.5C 271.5,313.833 271.5,302.167 271.5,290.5C 246.994,290.831 222.661,290.498 198.5,289.5 Z"/></g>
<g><path style="opacity:1" fill="#b9d5ec" d="M 365.5,288.5 C 364.827,296.873 363.827,305.206 362.5,313.5C 361.848,312.551 361.514,311.385 361.5,310C 362.476,302.629 363.809,295.462 365.5,288.5 Z"/></g>
<g><path style="opacity:1" fill="#f1652a" d="M 547.5,294.5 C 560.5,294.5 573.5,294.5 586.5,294.5C 585.007,304.448 584.007,314.448 583.5,324.5C 571.563,325.991 559.73,327.991 548,330.5C 547.5,318.505 547.333,306.505 547.5,294.5 Z"/></g>
<g><path style="opacity:1" fill="#f7f8f7" d="M 279.5,268.5 C 301.5,268.5 323.5,268.5 345.5,268.5C 342.788,291.135 340.455,313.801 338.5,336.5C 315.9,341.15 293.233,345.483 270.5,349.5C 268.883,348.962 267.216,348.629 265.5,348.5C 264.534,340.92 264.201,333.253 264.5,325.5C 265.833,325.5 267.167,325.5 268.5,325.5C 269.5,325.5 270.5,325.5 271.5,325.5C 283.441,322.912 295.441,320.578 307.5,318.5C 308.277,308.847 308.944,299.181 309.5,289.5C 299.5,289.5 289.5,289.5 279.5,289.5C 279.5,282.5 279.5,275.5 279.5,268.5 Z"/></g>
<g><path style="opacity:1" fill="#ecebea" d="M 545.5,330.5 C 546.088,339.103 545.422,347.436 543.5,355.5C 521.707,350.311 499.707,345.978 477.5,342.5C 476.249,330.155 474.915,317.822 473.5,305.5C 484.833,305.5 496.167,305.5 507.5,305.5C 508.541,311.79 509.208,318.123 509.5,324.5C 521.545,326.221 533.545,328.221 545.5,330.5 Z"/></g>
<g><path style="opacity:1" fill="#b8c4d5" d="M 157.5,303.5 C 159.894,311.197 161.227,319.197 161.5,327.5C 159.716,319.702 158.383,311.702 157.5,303.5 Z"/></g>
<g><path style="opacity:1" fill="#b3becb" d="M 385.5,303.5 C 384.795,311.732 383.461,319.732 381.5,327.5C 381.773,319.197 383.106,311.197 385.5,303.5 Z"/></g>
<g><path style="opacity:1" fill="#dac0b9" d="M 428.5,291.5 C 431.053,304.923 432.719,318.59 433.5,332.5C 431.013,319.069 429.346,305.402 428.5,291.5 Z"/></g>
<g><path style="opacity:1" fill="#eeeeed" d="M 268.5,325.5 C 267.167,325.5 265.833,325.5 264.5,325.5C 264.201,333.253 264.534,340.92 265.5,348.5C 245.125,344.605 224.792,340.605 204.5,336.5C 203.389,324.838 202.389,313.171 201.5,301.5C 212.5,301.5 223.5,301.5 234.5,301.5C 234.623,307.438 235.289,313.272 236.5,319C 247.324,321.039 257.99,323.205 268.5,325.5 Z"/></g>
<g><path style="opacity:1" fill="#d0e3f2" d="M 361.5,320.5 C 361.276,324.179 360.942,327.846 360.5,331.5C 359.397,327.76 359.73,324.094 361.5,320.5 Z"/></g>
<g><path style="opacity:1" fill="#ddbdb4" d="M 663.5,298.5 C 662.053,317.742 659.72,336.742 656.5,355.5C 658.012,336.265 660.346,317.265 663.5,298.5 Z"/></g>
<g><path style="opacity:1" fill="#b8c2d0" d="M 161.5,330.5 C 163.344,336.911 164.344,343.578 164.5,350.5C 162.579,344.1 161.579,337.433 161.5,330.5 Z"/></g>
<g><path style="opacity:1" fill="#b7c1cf" d="M 381.5,330.5 C 381.421,337.433 380.421,344.1 378.5,350.5C 378.656,343.578 379.656,336.911 381.5,330.5 Z"/></g>
<g><path style="opacity:1" fill="#a4b3c9" d="M 164.5,353.5 C 165.861,358.304 166.861,363.304 167.5,368.5C 166.307,368.03 165.64,367.03 165.5,365.5C 164.726,361.535 164.393,357.535 164.5,353.5 Z"/></g>
<g><path style="opacity:1" fill="#a4b3c8" d="M 378.5,353.5 C 378.607,357.535 378.274,361.535 377.5,365.5C 377.36,367.03 376.693,368.03 375.5,368.5C 376.139,363.304 377.139,358.304 378.5,353.5 Z"/></g>
<g><path style="opacity:1" fill="#f9c1b0" d="M 624.5,364.5 C 621.904,365.265 619.237,365.599 616.5,365.5C 619.089,363.843 621.756,363.509 624.5,364.5 Z"/></g>
<g><path style="opacity:1" fill="#facaba" d="M 612.5,366.5 C 608.929,367.642 605.262,368.309 601.5,368.5C 605.016,366.363 608.683,365.697 612.5,366.5 Z"/></g>
<g><path style="opacity:1" fill="#d5beb8" d="M 437.5,363.5 C 438.02,366.908 439.02,370.241 440.5,373.5C 444.071,374.081 447.404,375.081 450.5,376.5C 446.298,376.616 442.298,375.783 438.5,374C 437.544,370.606 437.211,367.106 437.5,363.5 Z"/></g>
<g><path style="opacity:1" fill="#f9c7b7" d="M 598.5,368.5 C 594.837,370.416 590.837,371.416 586.5,371.5C 590.239,369.898 594.239,368.898 598.5,368.5 Z"/></g>
<g><path style="opacity:1" fill="#a8aeb6" d="M 191.5,372.5 C 194.152,372.41 196.485,373.076 198.5,374.5C 195.848,374.59 193.515,373.924 191.5,372.5 Z"/></g>
<g><path style="opacity:1" fill="#f8b9a5" d="M 585.5,371.5 C 582.124,373.082 578.458,373.749 574.5,373.5C 577.876,371.918 581.542,371.251 585.5,371.5 Z"/></g>
<g><path style="opacity:1" fill="#a8b3c2" d="M 350.5,372.5 C 348.562,374.163 346.228,374.829 343.5,374.5C 345.515,373.076 347.848,372.41 350.5,372.5 Z"/></g>
<g><path style="opacity:1" fill="#fac2af" d="M 572.5,373.5 C 568.902,375.692 564.902,376.692 560.5,376.5C 564.163,374.584 568.163,373.584 572.5,373.5 Z"/></g>
<g><path style="opacity:1" fill="#d5bbb4" d="M 655.5,363.5 C 655.665,366.85 655.498,370.183 655,373.5C 651.116,375.627 646.949,376.627 642.5,376.5C 646.071,375.172 649.738,373.838 653.5,372.5C 654.089,369.36 654.756,366.36 655.5,363.5 Z"/></g>
<g><path style="opacity:1" fill="#d0c0bb" d="M 452.5,376.5 C 455.495,376.294 458.162,376.96 460.5,378.5C 457.572,378.435 454.905,377.768 452.5,376.5 Z"/></g>
<g><path style="opacity:1" fill="#f8b7a3" d="M 559.5,376.5 C 556.456,378.011 553.122,378.678 549.5,378.5C 552.544,376.989 555.878,376.322 559.5,376.5 Z"/></g>
<g><path style="opacity:1" fill="#cbbcb9" d="M 467.5,379.5 C 470.428,379.565 473.095,380.232 475.5,381.5C 472.505,381.706 469.838,381.04 467.5,379.5 Z"/></g>
<g><path style="opacity:1" fill="#e1c6bf" d="M 628.5,378.5 C 625.146,380.258 621.479,381.258 617.5,381.5C 620.854,379.742 624.521,378.742 628.5,378.5 Z"/></g>
<g><path style="opacity:1" fill="#d2c4c1" d="M 479.5,381.5 C 482.152,381.41 484.485,382.076 486.5,383.5C 483.848,383.59 481.515,382.924 479.5,381.5 Z"/></g>
<g><path style="opacity:1" fill="#e3c5bc" d="M 613.5,381.5 C 611.095,382.768 608.428,383.435 605.5,383.5C 607.838,381.96 610.505,381.294 613.5,381.5 Z"/></g>
<g><path style="opacity:1" fill="#d0bfbb" d="M 489.5,383.5 C 492.495,383.294 495.162,383.96 497.5,385.5C 494.572,385.435 491.905,384.768 489.5,383.5 Z"/></g>
<g><path style="opacity:1" fill="#dec7c1" d="M 602.5,383.5 C 598.8,385.281 594.8,386.281 590.5,386.5C 594.2,384.719 598.2,383.719 602.5,383.5 Z"/></g>
<g><path style="opacity:1" fill="#c8b8b4" d="M 504.5,386.5 C 508.8,386.755 512.8,387.755 516.5,389.5C 512.163,389.416 508.163,388.416 504.5,386.5 Z"/></g>
<g><path style="opacity:1" fill="#d5bbb5" d="M 587.5,386.5 C 583.902,388.692 579.902,389.692 575.5,389.5C 579.2,387.755 583.2,386.755 587.5,386.5 Z"/></g>
<g><path style="opacity:1" fill="#e7cdc6" d="M 572.5,389.5 C 570.095,390.768 567.428,391.435 564.5,391.5C 566.838,389.96 569.505,389.294 572.5,389.5 Z"/></g>
<g><path style="opacity:1" fill="#cec1be" d="M 534.5,392.5 C 537.152,392.41 539.485,393.076 541.5,394.5C 538.848,394.59 536.515,393.924 534.5,392.5 Z"/></g>
<g><path style="opacity:1" fill="#e5c8c0" d="M 557.5,392.5 C 555.485,393.924 553.152,394.59 550.5,394.5C 552.515,393.076 554.848,392.41 557.5,392.5 Z"/></g>
</svg>
